<svg width="127" height="204" viewBox="0 0 127 204" fill="none" xmlns="http://www.w3.org/2000/svg">
<g clip-path="url(#clip0_95_4190)">
<path d="M19.1358 84.543C15.7625 90.6929 10.3308 93.688 4.0625 96.0974" stroke="#3E3025" stroke-width="0.92" stroke-linecap="round" stroke-linejoin="round"/>
<path d="M11.716 96.3477C9.08651 99.4626 4.58446 99.6356 1.02531 100.94C-1.84325 102.005 -3.90171 103.962 -6.26562 105.759" stroke="#3E3025" stroke-width="0.92" stroke-linecap="round" stroke-linejoin="round"/>
<path d="M74.9398 80.3477C72.1509 86.3379 68.3527 91.3297 69.0433 98.3316" stroke="#3E3025" stroke-width="0.92" stroke-linecap="round" stroke-linejoin="round"/>
<path d="M76.9973 91.8359C74.8459 94.2853 73.478 98.4917 72.8406 101.633C72.389 103.843 72.9867 106.319 71.9375 108.382" stroke="#3E3025" stroke-width="0.92" stroke-linecap="round" stroke-linejoin="round"/>
<path d="M79.2444 102.617C74.0119 106.97 77.3187 112.947 77.6109 118.272" stroke="#3E3025" stroke-width="0.92" stroke-linecap="round" stroke-linejoin="round"/>
<path d="M83.5067 116.062C82.2318 120.402 83.9715 128.003 86.4815 131.437" stroke="#3E3025" stroke-width="0.92" stroke-linecap="round" stroke-linejoin="round"/>
<path d="M38.496 19.3413C24.8039 18.8354 13.0242 18.5027 0.0625 23.6809" stroke="#3E3025" stroke-width="0.92" stroke-linecap="round" stroke-linejoin="round"/>
<path d="M22.7199 22.8164C12.4807 22.9895 1.63066 24.5735 -7.45312 29.6852" stroke="#3E3025" stroke-width="0.92" stroke-linecap="round" stroke-linejoin="round"/>
<path d="M10.4757 27.25C6.38536 27.676 1.05992 28.6344 -2.53906 30.5646" stroke="#3E3025" stroke-width="0.92" stroke-linecap="round" stroke-linejoin="round"/>
<path d="M60.9531 23.1367C70.7009 27.5695 79.7449 32.7743 87.5405 40.2421C93.1846 45.6599 96.4516 51.1576 100.037 57.9864" stroke="#3E3025" stroke-width="0.92" stroke-linecap="round" stroke-linejoin="round"/>
<path d="M74.0391 36.9922C78.0896 40.6129 83.933 44.1671 86.8812 48.6531C89.3912 52.5002 91.941 56.8664 94.4245 60.8732" stroke="#3E3025" stroke-width="0.92" stroke-linecap="round" stroke-linejoin="round"/>
<path d="M79.7578 47.8008C84.0607 50.6095 85.8668 54.1903 88.9346 58.1705" stroke="#3E3025" stroke-width="0.92" stroke-linecap="round" stroke-linejoin="round"/>
<path d="M-24.9531 170.707C-13.8109 180.637 -2.38974 189.822 13.0819 191.473" stroke="#3E3025" stroke-width="0.92" stroke-linecap="round" stroke-linejoin="round"/>
<path d="M72.2847 174.062C65.6047 170.907 58.327 177.15 53.1875 180.291" stroke="#3E3025" stroke-width="0.92" stroke-linecap="round" stroke-linejoin="round"/>
<path d="M68.5939 178.231C60.6124 177.951 51.7278 185.02 46.8672 190.877" stroke="#3E3025" stroke-width="0.92" stroke-linecap="round" stroke-linejoin="round"/>
<path d="M54.0127 190.223C51.8613 192.326 48.2357 194.203 45.2344 194.682" stroke="#3E3025" stroke-width="0.92" stroke-linecap="round" stroke-linejoin="round"/>
<path d="M118.262 112.418C120.653 120.578 116.496 129.723 112.977 136.925C110.387 142.223 107.704 149.517 103.773 153.884" stroke="#3E3025" stroke-width="0.92" stroke-linecap="round" stroke-linejoin="round"/>
<path d="M109.123 138.48C106.507 142.727 104.355 147.479 102.031 151.899" stroke="#3E3025" stroke-width="0.92" stroke-linecap="round" stroke-linejoin="round"/>
<path d="M114.505 88.2973C104.398 86.3006 96.1512 98.1878 90.6797 104.777" stroke="#3E3025" stroke-width="0.92" stroke-linecap="round" stroke-linejoin="round"/>
<path d="M100.638 98.6641C96.7471 100.94 93.427 109.553 88.5 108.887" stroke="#3E3025" stroke-width="0.92" stroke-linecap="round" stroke-linejoin="round"/>
<path d="M89.8281 149.012C90.3062 152.446 95.4325 154.376 98.1284 155.681" stroke="#3E3025" stroke-width="0.92" stroke-linecap="round" stroke-linejoin="round"/>
<path d="M114.026 114.957C114.066 119.057 114.066 122.265 112.805 126.205" stroke="#3E3025" stroke-width="0.92" stroke-linecap="round" stroke-linejoin="round"/>
<path d="M95.8594 86.1397C98.2631 84.7686 100.64 83.6371 103.323 82.905C107.825 81.6803 111.716 82.7718 116.245 82.3991" stroke="#3E3025" stroke-width="0.92" stroke-linecap="round" stroke-linejoin="round"/>
<path d="M0.39884 87.3633C-2.86814 90.0522 -4.39538 93.2337 -5.48438 97.2405" stroke="#3E3025" stroke-width="0.92" stroke-linecap="round" stroke-linejoin="round"/>
<path d="M3.02497 74.2773C4.57878 77.0195 4.33973 80.9331 2.54688 83.489" stroke="#3E3025" stroke-width="0.92" stroke-linecap="round" stroke-linejoin="round"/>
<path d="M90.3886 180.996C67.5596 199.699 37.9177 206.395 10.1484 200.511" stroke="#3E3025" stroke-width="2.12" stroke-linecap="round" stroke-linejoin="round"/>
<path d="M-25.1641 28.4874C10.3477 3.31519 59.6844 4.89927 93.5759 35.1299C106.126 46.3116 114.997 60.0758 120.203 74.9049" stroke="#3E3025" stroke-width="2.12" stroke-linecap="round" stroke-linejoin="round"/>
<path d="M104.832 166.289C103.716 167.7 102.654 169.151 101.445 170.509C98.0058 174.383 94.2607 177.817 90.3828 180.998" stroke="#3E3025" stroke-width="2.12" stroke-linecap="round" stroke-linejoin="round"/>
<path d="M10.1324 200.51C-5.60491 197.182 -20.7446 189.887 -33.6265 178.399C-59.5499 155.277 -69.8555 121.199 -63.9988 89.3047" stroke="#3E3025" stroke-width="2.12" stroke-linecap="round" stroke-linejoin="round"/>
<path d="M120.201 74.9023C130.799 105.133 125.872 139.756 104.836 166.286" stroke="#3E3025" stroke-width="2.12" stroke-linecap="round" stroke-linejoin="round"/>
<path d="M-25.1681 28.4844C-23.6143 36.072 -17.4124 44.0856 -13.0962 48.3453C-4.87568 56.4653 6.5853 59.6734 15.6425 66.662C22.4686 71.9334 28.8432 82.3297 25.0849 91.3949C21.4593 100.154 10.171 102.483 2.82695 106.637C-13.2423 115.742 -8.07626 134.032 -21.7019 145.2C-38.8337 159.231 -44.9028 139.703 -47.0409 125.686C-48.3424 117.153 -46.1379 106.863 -50.2681 98.7429C-53.203 92.9923 -58.3293 90.4897 -64 89.2917" stroke="#3E3025" stroke-width="2.12" stroke-linecap="round" stroke-linejoin="round"/>
<path d="M52.6719 1.86275C52.8047 1.71632 52.9375 1.5699 53.0703 1.41016" stroke="#3E3025" stroke-width="2.12" stroke-linecap="round" stroke-linejoin="round"/>
<path d="M120.204 74.9026C113.099 76.5266 106.193 77.6847 98.7163 76.0341C93.5901 74.9026 89.1146 72.1471 84.0547 70.8825C73.0984 68.1536 66.6043 70.0439 64.0677 81.0393C61.6906 91.3824 64.8114 101.952 65.8606 112.295C66.5645 119.23 70.9736 124.595 75.8209 129.201C78.5567 131.796 83.0587 134.512 84.2938 138.266C85.3562 141.5 83.2978 144.189 83.3642 147.198C83.5634 154.812 89.9247 157.514 95.8079 161.268C98.8093 163.185 101.837 164.769 104.825 166.287" stroke="#3E3025" stroke-width="2.12" stroke-linecap="round" stroke-linejoin="round"/>
<path d="M90.3886 180.996C82.1946 172.796 71.6499 162.733 61.2248 167.072C52.2871 170.799 49.1529 182.487 42.3534 188.544C34.3852 195.639 21.9149 197.396 12.0475 199.912C11.3835 200.085 10.7593 200.298 10.1484 200.511" stroke="#3E3025" stroke-width="2.12" stroke-linecap="round" stroke-linejoin="round"/>
<path d="M-6.64062 62.75C-4.01111 65.1461 -1.74016 67.5289 0.265181 70.5107" stroke="#3E3025" stroke-width="0.92" stroke-linecap="round" stroke-linejoin="round"/>
</g>
<defs>
<clipPath id="clip0_95_4190">
<rect width="194" height="204" fill="white" transform="translate(-67)"/>
</clipPath>
</defs>
</svg>
