<svg width="357" height="169" viewBox="0 0 357 169" fill="none" xmlns="http://www.w3.org/2000/svg">
<g clip-path="url(#clip0_74_235)">
<path d="M350.841 100.756C364.662 102.752 377.695 112.843 377.323 126.957C376.972 140.091 366.993 148.078 354.43 150.652C350.436 151.474 345.468 152.061 340.445 152.032" stroke="#3E3025" stroke-width="1.34" stroke-linecap="round" stroke-linejoin="round"/>
<path d="M350.841 100.755C345.162 99.9332 339.34 100.442 334.273 102.654" stroke="#3E3025" stroke-width="1.34" stroke-linecap="round" stroke-linejoin="round"/>
<path d="M278.984 58.2089C293.888 56.9659 309.679 59.5008 322.11 65.8528C334.191 72.0188 349.084 86.1224 350.835 100.754" stroke="#3E3025" stroke-width="1.34" stroke-linecap="round" stroke-linejoin="round"/>
<path d="M270.695 102.291C279.121 110.924 275.083 121.562 263.473 122.482C253.471 123.275 245.012 114.281 241.116 106.177C232.876 88.9999 240.854 69.3665 258.887 62.5154C265.07 60.1664 271.942 58.806 279 58.2188" stroke="#3E3025" stroke-width="1.34" stroke-linecap="round" stroke-linejoin="round"/>
<path d="M278.988 58.209C273.21 42.608 257.978 31.1568 239.485 33.3394C233.488 34.0441 228.728 38.556 226.047 43.9684" stroke="#3E3025" stroke-width="1.34" stroke-linecap="round" stroke-linejoin="round"/>
<path d="M184.581 82.0714C180.423 91.1442 175.871 97.2711 164.118 94.7655C157.979 93.454 153.164 88.531 150.724 82.9229C146.675 73.6151 148.536 62.4184 154.456 54.1089C161.973 43.5484 175.324 37.5683 188.937 35.8262" stroke="#3E3025" stroke-width="1.34" stroke-linecap="round" stroke-linejoin="round"/>
<path d="M226.06 43.9789C220.928 40.8175 216.759 37.9988 209.701 36.5013C203.244 35.1311 196.066 34.906 188.953 35.8162" stroke="#3E3025" stroke-width="1.34" stroke-linecap="round" stroke-linejoin="round"/>
<path d="M75.672 118.939C66.7755 115.142 61.9716 106.372 59.3125 97.0645" stroke="#3E3025" stroke-width="1.34" stroke-linecap="round" stroke-linejoin="round"/>
<path d="M188.94 35.8161C180.044 14.9201 154.602 1.35487 132.246 0.914439C103.564 0.346774 77.3126 17.0342 64.4658 41.5417C58.1627 53.5703 55.1644 67.2335 56.4228 80.6911C56.8933 85.7022 57.714 91.4669 59.3008 97.0555" stroke="#3E3025" stroke-width="1.34" stroke-linecap="round" stroke-linejoin="round"/>
<path d="M30.9144 115.416C26.3075 112.666 20.6938 111.726 13.57 114.017C2.1129 117.716 -2.51591 129.001 3.17435 139.425C12.5633 156.64 36.145 160.546 54.2445 160.369C66.1174 160.252 79.1503 157.893 88.2328 151.15" stroke="#3E3025" stroke-width="1.34" stroke-linecap="round" stroke-linejoin="round"/>
<path d="M59.3138 97.0645C57.4973 97.1428 55.6917 97.2994 53.908 97.5734C42.7683 99.3449 34.5612 105.922 30.9062 115.416" stroke="#3E3025" stroke-width="1.34" stroke-linecap="round" stroke-linejoin="round"/>
<path d="M29.0312 122.6C29.3486 120.036 30.038 117.667 30.9025 115.416" stroke="#3E3025" stroke-width="1.34" stroke-linecap="round" stroke-linejoin="round"/>
<path d="M369.416 117.178C368.595 110.317 359.228 105.561 352.805 105.482" stroke="#3E3025" stroke-width="1.34" stroke-linecap="round" stroke-linejoin="round"/>
<path d="M344.829 104.846C339.489 105.727 327.397 111.051 326.281 115.964" stroke="#3E3025" stroke-width="1.34" stroke-linecap="round" stroke-linejoin="round"/>
<path d="M270.734 94.1484C280.419 96.3506 282.421 108.262 281.469 116.483" stroke="#3E3025" stroke-width="1.34" stroke-linecap="round" stroke-linejoin="round"/>
<path d="M285.912 100.168C288.396 107.812 288.44 125.018 277.18 126.515" stroke="#3E3025" stroke-width="1.34" stroke-linecap="round" stroke-linejoin="round"/>
<path d="M270.531 128.219C264.119 127.935 253.515 128.336 248.328 123.863" stroke="#3E3025" stroke-width="1.34" stroke-linecap="round" stroke-linejoin="round"/>
<path d="M316.751 70.3954C311.138 65.1494 302.077 64.4154 294.734 63.8281" stroke="#3E3025" stroke-width="1.34" stroke-linecap="round" stroke-linejoin="round"/>
<path d="M287.482 63.6211C281.135 63.9441 275.872 65.4611 269.656 66.2833" stroke="#3E3025" stroke-width="1.34" stroke-linecap="round" stroke-linejoin="round"/>
<path d="M266.022 50.4377C263.549 45.1036 258.319 41.5997 252.234 41.5605" stroke="#3E3025" stroke-width="1.34" stroke-linecap="round" stroke-linejoin="round"/>
<path d="M222 50.6445C216.573 58.4353 218.739 70.4933 222.701 78.4797" stroke="#3E3025" stroke-width="1.34" stroke-linecap="round" stroke-linejoin="round"/>
<path d="M191.825 40.8364C187.371 40.5819 181.156 43.4105 177.03 44.9079C173.354 46.2488 168.484 49.4297 165.442 51.8863C160.999 55.4685 155.418 64.4924 157.596 69.9733" stroke="#3E3025" stroke-width="1.34" stroke-linecap="round" stroke-linejoin="round"/>
<path d="M163.017 64.8555C162.459 71.4032 160.894 80.388 167.449 84.8412" stroke="#3E3025" stroke-width="1.34" stroke-linecap="round" stroke-linejoin="round"/>
<path d="M186.323 87.8164C184.101 93.1897 181.464 97.8778 174.68 98.7489" stroke="#3E3025" stroke-width="1.34" stroke-linecap="round" stroke-linejoin="round"/>
<path d="M189.575 81.0426C190.243 77.3919 188.164 71.8522 186.008 68.9062" stroke="#3E3025" stroke-width="1.34" stroke-linecap="round" stroke-linejoin="round"/>
<path d="M183.03 63.4744C181.575 60.6556 178.489 60.1173 175.742 59.1875" stroke="#3E3025" stroke-width="1.34" stroke-linecap="round" stroke-linejoin="round"/>
<path d="M144.428 67.4492C143.596 77.4617 145.763 85.5069 152.164 93.6206" stroke="#3E3025" stroke-width="1.34" stroke-linecap="round" stroke-linejoin="round"/>
<path d="M140.352 79.3496C141.139 86.5727 145.298 93.6783 151.021 97.9749" stroke="#3E3025" stroke-width="1.34" stroke-linecap="round" stroke-linejoin="round"/>
<path d="M337.716 89.4706C332.354 83.7059 327.922 77.1582 320.284 73.9088C314.911 71.6283 308.137 69.7394 302.305 69.25" stroke="#3E3025" stroke-width="1.34" stroke-linecap="round" stroke-linejoin="round"/>
<path d="M353.609 109.623C356.794 112.735 372.07 121.534 367.408 127.387" stroke="#3E3025" stroke-width="1.34" stroke-linecap="round" stroke-linejoin="round"/>
<path d="M54.3281 101.049C59.4931 108.086 61.9662 116.748 71.0487 120.526" stroke="#3E3025" stroke-width="1.34" stroke-linecap="round" stroke-linejoin="round"/>
<path d="M66.3672 121.641C72.5936 127.063 80.8774 130.792 89.2814 131.242" stroke="#3E3025" stroke-width="1.34" stroke-linecap="round" stroke-linejoin="round"/>
<path d="M80.1171 149.025C74.0438 151.609 64.436 154.575 57.8594 154.301" stroke="#3E3025" stroke-width="1.34" stroke-linecap="round" stroke-linejoin="round"/>
<path d="M47.9076 154.253C40.3461 153.842 33.5178 153.568 25.8906 152.139" stroke="#3E3025" stroke-width="1.34" stroke-linecap="round" stroke-linejoin="round"/>
<path d="M37.1519 114.135C34.5913 119.577 32.1401 124.862 34.1974 130.94" stroke="#3E3025" stroke-width="1.34" stroke-linecap="round" stroke-linejoin="round"/>
<path d="M8.24987 121.094C6.54279 127.181 3.25995 133.612 9.79281 138.995" stroke="#3E3025" stroke-width="1.34" stroke-linecap="round" stroke-linejoin="round"/>
<path d="M10.7891 127.23C11.8943 132.408 12.2992 142.323 19.7731 143.135" stroke="#3E3025" stroke-width="1.34" stroke-linecap="round" stroke-linejoin="round"/>
<path d="M73.8306 47.0332C69.355 52.8567 67.5932 62.5951 68.8626 69.6028" stroke="#3E3025" stroke-width="1.34" stroke-linecap="round" stroke-linejoin="round"/>
<path d="M76.1102 42.7657C76.0226 39.3695 83.2558 32.5085 85.6195 30.0519C89.2196 26.3132 93.9688 23.3378 98.9478 21.6152" stroke="#3E3025" stroke-width="1.34" stroke-linecap="round" stroke-linejoin="round"/>
<path d="M89.4582 34.1914C81.8201 41.7081 72.464 53.081 72.7485 64.356" stroke="#3E3025" stroke-width="1.34" stroke-linecap="round" stroke-linejoin="round"/>
<path d="M111.844 9.30187C127.459 0.307304 149.739 9.75209 163.144 18.1888C166.602 20.3616 170.092 22.9944 173.244 25.2944" stroke="#3E3025" stroke-width="1.34" stroke-linecap="round" stroke-linejoin="round"/>
<path d="M173.589 34.9454C171.51 28.1236 157.438 20.1372 150.828 19.0605" stroke="#3E3025" stroke-width="1.34" stroke-linecap="round" stroke-linejoin="round"/>
<path d="M235.356 42.5098C227.849 45.1034 225.496 60.4304 228.101 66.5279" stroke="#3E3025" stroke-width="1.34" stroke-linecap="round" stroke-linejoin="round"/>
<path d="M213.168 66.2246C212.719 71.7642 214.339 78.5762 217.151 83.4601C218.869 86.4452 221.091 90.3504 223.618 92.7483" stroke="#3E3025" stroke-width="1.34" stroke-linecap="round" stroke-linejoin="round"/>
<path d="M212.609 86.1621C214.371 88.697 215.673 91.4669 217.391 94.0018C218.978 96.3605 221.298 97.8678 223.016 99.9427" stroke="#3E3025" stroke-width="1.34" stroke-linecap="round" stroke-linejoin="round"/>
<path d="M325.974 111.031C319.496 112.695 316.902 130.165 318.281 135.323" stroke="#3E3025" stroke-width="1.34" stroke-linecap="round" stroke-linejoin="round"/>
<path d="M62.0697 77.7949C61.1943 84.3133 65.451 92.887 68.1211 98.73C69.9376 102.694 71.6884 105.111 75.026 107.813" stroke="#3E3025" stroke-width="1.34" stroke-linecap="round" stroke-linejoin="round"/>
<path d="M71.7969 95.9688C73.9307 100.402 79.9821 111.08 85.9897 111.423" stroke="#3E3025" stroke-width="1.34" stroke-linecap="round" stroke-linejoin="round"/>
<path d="M354.186 143.271C348.561 116.777 390.385 100.324 417.063 115.651C410.716 111.687 432.897 99.8053 437.275 98.3665C451.96 93.5218 470.803 94.3048 485.04 100.167C512.189 111.345 528.363 146.833 508.644 166.692C508.348 166.986 507.954 167.309 507.506 167.632" stroke="#3E3025" stroke-width="1.14" stroke-linecap="round" stroke-linejoin="round"/>
</g>
<defs>
<clipPath id="clip0_74_235">
<rect width="518" height="167.941" fill="white" transform="translate(0 0.248047)"/>
</clipPath>
</defs>
</svg>
