<svg width="269" height="203" viewBox="0 0 269 203" fill="none" xmlns="http://www.w3.org/2000/svg">
<g clip-path="url(#clip0_74_295)">
<path d="M58.0469 3.125L70.9061 91.2203L110.183 143.318L199.094 194.973L263.906 154.458" stroke="#3E3025" stroke-width="1.1" stroke-linecap="round" stroke-linejoin="round"/>
<path d="M110.179 143.319L-11.0547 181.715L10.7454 101.752L70.9025 91.2207" stroke="#3E3025" stroke-width="1.1" stroke-linecap="round" stroke-linejoin="round"/>
<path d="M79.7915 96.5766C77.2344 101.916 70.3172 104.381 64.3383 102.097C58.3594 99.8132 55.5999 93.6357 58.157 88.2961C60.7142 82.9564 67.6313 80.492 73.6102 82.7757C79.5892 85.0594 82.3487 91.237 79.7915 96.5766Z" fill="#3E3025"/>
<path d="M119.893 146.44C117.98 150.433 112.81 152.273 108.34 150.564C103.869 148.855 101.809 144.239 103.722 140.246C105.635 136.254 110.805 134.414 115.275 136.122C119.746 137.831 121.806 142.448 119.893 146.44Z" fill="#3E3025"/>
<path d="M16.2289 102.885C15.0331 105.399 11.7769 106.566 8.96222 105.481C6.14752 104.413 4.84136 101.505 6.05554 98.9915C7.25133 96.4778 10.5075 95.3113 13.3222 96.3957C16.1369 97.4636 17.4431 100.372 16.2289 102.885Z" fill="#3E3025"/>
<path d="M207.091 198.046C205.307 201.776 200.469 203.501 196.293 201.907C192.117 200.314 190.185 195.993 191.969 192.263C193.754 188.534 198.592 186.809 202.768 188.402C206.944 189.996 208.876 194.317 207.091 198.046Z" fill="#3E3025"/>
<path d="M61.9633 7.49472C60.7675 10.0084 57.5113 11.1749 54.6966 10.0906C51.8819 9.02267 50.5757 6.11464 51.7899 3.60092C52.9857 1.08719 56.2419 -0.0793059 59.0566 1.00505C61.8713 2.07297 63.1775 4.981 61.9633 7.49472Z" fill="#3E3025"/>
<path d="M268.541 157.333C267.346 159.846 264.089 161.013 261.275 159.928C258.46 158.844 257.154 155.953 258.368 153.439C259.564 150.925 262.82 149.759 265.635 150.843C268.449 151.911 269.756 154.819 268.541 157.333Z" fill="#3E3025"/>
</g>
<defs>
<clipPath id="clip0_74_295">
<rect width="288" height="201.886" fill="white" transform="translate(-19 0.611328)"/>
</clipPath>
</defs>
</svg>
